<?xml version="1.0" encoding="utf-8"?>
<!-- Generator: Adobe Illustrator 23.0.1, SVG Export Plug-In . SVG Version: 6.00 Build 0)  -->
<svg version="1.1" id="Layer_1" xmlns="http://www.w3.org/2000/svg" xmlns:xlink="http://www.w3.org/1999/xlink" x="0px" y="0px"
	 viewBox="0 0 450 628" style="enable-background:new 0 0 450 628;" xml:space="preserve">
<style type="text/css">
	.st0{fill:#EDEDED;}
	.st1{fill:#B3B3B3;}
</style>
<path class="st0" d="M429.91,628H20.09C8.99,628,0,619.01,0,607.91V20.09C0,8.99,8.99,0,20.09,0h409.82C441.01,0,450,8.99,450,20.09
	v587.82C450,619.01,441.01,628,429.91,628z"/>
<path class="st1" d="M29.62,12.5c133.66,0,267.31,0,400.97,0c1.52,1,9.07,6.17,8.37,13c-0.84,8.15-13.16,15.84-29.85,16
	c-130.29,0-260.57,0-390.86,0c-1.22-1.09-7.09-6.55-5.69-14C13.81,20.86,20.38,15.14,29.62,12.5z"/>
<rect x="32.5" y="84.5" class="st1" width="386" height="243"/>
<path class="st1" d="M388.5,423.5h-327c-4.42,0-8-3.58-8-8l0,0c0-4.42,3.58-8,8-8h327c4.42,0,8,3.58,8,8l0,0
	C396.5,419.92,392.92,423.5,388.5,423.5z"/>
<path class="st1" d="M388.5,443.5h-327c-4.42,0-8-3.58-8-8l0,0c0-4.42,3.58-8,8-8h327c4.42,0,8,3.58,8,8l0,0
	C396.5,439.92,392.92,443.5,388.5,443.5z"/>
<path class="st1" d="M389,464H62c-4.42,0-8-3.58-8-8l0,0c0-4.42,3.58-8,8-8h327c4.42,0,8,3.58,8,8l0,0
	C397,460.42,393.42,464,389,464z"/>
<rect x="18" y="84" class="st1" width="7" height="524"/>
<rect x="425" y="84" class="st1" width="7" height="524"/>
</svg>
