<svg id="Layer_1" data-name="Layer 1" xmlns="http://www.w3.org/2000/svg" viewBox="0 0 536.89 471.16"><defs><style>.cls-1{fill:#4e6e93;}.cls-2{stroke:#000;stroke-miterlimit:10;}.cls-3{fill:#30527a;}.cls-4{fill:#31b4d3;}.cls-5{font-size:200px;fill:#fff;font-family:DFKaiShu-SB-Estd-BF, DFKai-SB;}.cls-6{font-family:zikutanghzykt;}</style></defs><title>katana-wind-logo-light-sword-no-bg</title><path class="cls-1" d="M477,58.67s.45-6.41-24.14-.08c-22.42,5.77-198.93,151.87-233.42,184.87s-75.85,72-75.85,72l11.91,13.71S208,268.42,291.78,198.62,391,115.42,424.77,92,451.74,74.61,477,58.67Z" transform="translate(-22.29 -55.8)"/><path class="cls-2" d="M226.81,314.36" transform="translate(-22.29 -55.8)"/><polygon class="cls-3" points="142.38 280.41 137.24 284.88 116.78 263.83 108.71 255.52 113.85 251.05 142.38 280.41"/><path class="cls-3" d="M22.29,438.92l12.14,10.5L152.36,333.3l-13.91-13.41S22.74,432.51,22.29,438.92Z" transform="translate(-22.29 -55.8)"/><path class="cls-4" d="M200,340.47c57.09,25.48,101.66-3,101.66-3S175.31,351.16,164,305.81,200,340.47,200,340.47Z" transform="translate(-22.29 -55.8)"/><path class="cls-4" d="M254.18,268.06c.09-1.71,131.14-70.23,109.31-80s-19.87,48.8-54.83,58.92S254.18,268.06,254.18,268.06Z" transform="translate(-22.29 -55.8)"/><path class="cls-4" d="M165.74,92.22c-27.86,74.54,1.68,104.75,25.35,110.1s-72.56-55.12-55.46-97.71S165.74,92.22,165.74,92.22Z" transform="translate(-22.29 -55.8)"/><path class="cls-4" d="M77.63,196.57c7,33.06-10.45,54.37,12.7,68.38,0,0-89.77-123.36-33-114.56S5.74,159,56.56,189.53" transform="translate(-22.29 -55.8)"/><path class="cls-4" d="M384.71,304.38c31.44,110.29,13.3,76.52-63.57,111.23S383,427.19,426.05,325.08s12.79-5.45-42.72-41.26S384.71,304.38,384.71,304.38Z" transform="translate(-22.29 -55.8)"/><path class="cls-4" d="M134.58,378c-82.36-44.42-75.13-38.81-67.5-74.83S57.84,368.57,125,415.63s27.42,15.38,60.11,3.29-65.27-12.25-126.41-31.21" transform="translate(-22.29 -55.8)"/><text class="cls-5" transform="translate(36.89 263.55)">風刀<tspan class="cls-6" x="400" y="0"> </tspan></text></svg>