<?xml version="1.0" encoding="utf-8"?>
<!-- Generator: Adobe Illustrator 23.0.1, SVG Export Plug-In . SVG Version: 6.00 Build 0)  -->
<svg version="1.1" id="Layer_1" xmlns="http://www.w3.org/2000/svg" xmlns:xlink="http://www.w3.org/1999/xlink" x="0px" y="0px"
	 viewBox="0 0 500 500" style="enable-background:new 0 0 500 500;" xml:space="preserve">
<style type="text/css">
	.st0{display:none;fill:#0A192F;}
	.st1{fill:#4E6E93;}
	.st2{stroke:#000000;stroke-miterlimit:10;}
	.st3{fill:#30527A;}
	.st4{fill:#31B4D3;}
	.st5{fill:none;}
	.st6{fill:#FFFFFF;}
</style>
<rect class="st0" width="500" height="500"/>
<path class="st1" d="M477,58.67c0,0,0.45-6.41-24.14-0.08c-22.43,5.77-198.93,151.87-233.43,184.87s-75.85,71.95-75.85,71.95
	l11.92,13.71c0,0,52.53-60.71,136.27-130.5s99.17-83.2,132.99-106.59S451.74,74.61,477,58.67z"/>
<path class="st2" d="M226.81,314.36"/>
<polygon class="st3" points="164.67,336.2 159.53,340.67 139.07,319.62 131,311.32 136.14,306.85 "/>
<path class="st3" d="M22.29,438.92l12.14,10.51L152.36,333.3l-13.91-13.41C138.45,319.89,22.74,432.51,22.29,438.92z"/>
<path class="st4" d="M199.98,340.47c57.09,25.49,101.66-3.04,101.66-3.04s-126.33,13.73-137.61-31.62S199.98,340.47,199.98,340.47z"
	/>
<path class="st4" d="M254.18,268.06c0.09-1.72,131.14-70.23,109.32-80.03c-21.83-9.8-19.87,48.8-54.83,58.93
	S254.18,268.06,254.18,268.06z"/>
<path class="st4" d="M165.74,92.22c-27.86,74.54,1.67,104.76,25.35,110.11c23.68,5.35-72.56-55.12-55.46-97.71
	S165.74,92.22,165.74,92.22z"/>
<path class="st4" d="M77.63,196.57c6.96,33.06-10.45,54.37,12.7,68.39c0,0-89.77-123.36-33.05-114.56
	c56.73,8.8-51.55,8.65-0.73,39.14"/>
<path class="st4" d="M384.71,304.38c31.44,110.29,13.3,76.52-63.56,111.23s61.84,11.58,104.91-90.53s12.79-5.45-42.72-41.26
	S384.71,304.38,384.71,304.38z"/>
<path class="st4" d="M134.58,377.98c-82.36-44.42-75.13-38.82-67.5-74.84s-9.23,65.43,57.9,112.48s27.42,15.38,60.11,3.29
	s-65.27-12.25-126.41-31.21"/>
<g>
	<rect x="59.17" y="176.35" class="st5" width="450.78" height="350.61"/>
	<path class="st6" d="M108.42,198.88c4.37,1.79,6.55,3.73,6.55,5.84c0,0.65-0.22,1.87-0.66,3.65c-0.29,2.43-0.44,3.97-0.44,4.62
		l-0.77,21.98c0,17.97-0.79,31.6-2.37,40.89c-1.13,11.25-5.19,22.01-12.19,32.28c-3.84,6.24-9.82,12.1-17.94,17.6
		c-5.42,3.55-8.91,5.32-10.5,5.32c-0.85,0-1.28-0.37-1.28-1.1c13.06-12.57,21.82-25.69,26.26-39.35
		c4.44-10.86,6.66-29.41,6.66-55.64c-0.77-17.63-2.23-28.11-4.38-31.45c-1.69-2.23-2.54-3.52-2.54-3.9c0-1.95,1.54-2.93,4.61-2.93
		C101.38,196.69,104.37,197.42,108.42,198.88z M203.02,185.09c0,0,3.02,1.51,9.05,4.52c3.58,2.08,5.38,4.43,5.38,7.06
		c0,0.85-0.52,2.43-1.57,4.75c-2.31,5.49-4.51,12.77-6.6,21.84c-2.52,12.87-3.77,24.58-3.77,35.14c0,18.58,3.97,34.34,11.9,47.3
		c6.28,9.94,11.57,14.91,15.87,14.91c2.03,0,3.81-3.55,5.33-10.66l3.43-15.43c0.25-2.2,0.76-3.31,1.52-3.31
		c0.43,0,0.72,1.22,0.87,3.65c1.3,18.15,3.11,30,5.43,35.53c1.01,2.21,1.52,3.76,1.52,4.65c0,3.07-2.7,4.6-8.09,4.6
		c-5.8,0-11.99-2.31-18.55-6.94c-8.58-5.95-15.78-15.03-21.58-27.25c-5.3-12.22-7.95-27.91-7.95-47.06c0-14,0.64-29.7,1.94-47.1
		c0.64-5.3,0.97-9.12,0.97-11.46c0-2.01-1.17-3.02-3.49-3.02c-2.19,0-6.3,0.37-12.33,1.12c-23.58,2.61-43.04,5.21-58.39,7.81
		c-3.84,0.74-6.85,1.12-9.05,1.12c-1.89,0-4.25-0.96-7.08-2.88c-3.21-2.11-4.82-3.74-4.82-4.9c0-0.85,1.43-1.27,4.29-1.27
		c18-0.57,35.38-2.26,52.15-5.1c15.54-2.26,27.4-4.53,35.58-6.8c2.86-0.56,4.7-0.85,5.52-0.85
		C202.17,185.09,203.02,185.09,203.02,185.09z M113.65,309.06c0.83,0,2.22,0.16,4.16,0.48c2.63,0.32,4.29,0.48,4.99,0.48
		c1.75,0,4.95-0.22,9.58-0.67c20.66-3.09,35.12-5.53,43.38-7.3c2.13-0.44,3.63-0.67,4.51-0.67c3.13,0,4.69,0.78,4.69,2.34
		c0,1.31-1.68,2.39-5.05,3.26c-23.69,6.52-35.53,9.85-35.53,10c-4.99,1.45-9.48,2.97-13.46,4.56c-2.37,1.3-4.18,1.96-5.42,1.96
		c-2.11,0-4.99-1.56-8.65-4.67c-4.08-3.82-6.11-6.37-6.11-7.64C110.74,309.76,111.71,309.06,113.65,309.06z M125.75,256.07
		c0,0,0.84,0.32,2.52,0.96c3.68,1.28,5.52,2.83,5.52,4.64c0,1.45,0.1,2.96,0.31,4.52c1.28,9.61,1.93,16.24,1.93,19.88
		c0,1.77-0.27,3.18-0.8,4.21c-0.53,1.15-1.17,1.72-1.92,1.72c-0.85,0-1.71-0.69-2.56-2.07c-1.28-1.8-1.98-3.71-2.08-5.73l-1.63-9.21
		c-0.63-4.8-1.31-8.16-2.03-10.08c-0.45-1.98-1.63-3.8-3.53-5.47c-0.73-0.45-1.09-0.77-1.09-0.96c0-1.61,0.68-2.42,2.05-2.42
		C124.65,256.07,125.75,256.07,125.75,256.07z M174.89,223.98c4.1,1.46,6.16,2.71,6.16,3.75c0,1.67-2.49,3.02-7.46,4.06
		c-3.74,0.44-6.91,0.87-9.5,1.31c-2.3,0.44-8.21,1.53-17.71,3.27c-5.19,0.87-8.93,1.31-11.23,1.31c-3.17,0-5.82-0.32-7.93-0.95
		c-3.17-1.06-4.76-2.22-4.76-3.49c0-1.9,2.48-2.96,7.46-3.17c10.64-1.69,20.98-3.9,31.02-6.61c2.95-0.68,4.58-1.02,4.88-1.02
		C167.33,222.42,170.35,222.94,174.89,223.98z M177.88,247.4c0,0,2.4,1.15,7.22,3.46c2.19,1.3,3.28,2.74,3.28,4.33
		c0,1.31-0.71,2.62-2.11,3.92c-1.56,1.96-2.97,4.68-4.21,8.17l-3.75,11.11c-0.87,1.79-2.33,2.69-4.36,2.69
		c-2.91,0-4.36-0.63-4.36-1.88c0-0.48,0.1-1.43,0.31-2.86c0.83-3.81,1.46-7.15,1.88-10.01c0.42-3.1,0.63-5.6,0.63-7.51
		c0-1.07-0.67-1.61-2.01-1.61c-3.83,0-8.73,0.57-14.71,1.71c-12.2,2.05-20.21,3.08-24.04,3.08c-1.43,0-2.85-0.64-4.28-1.94
		c-1.71-1-2.57-1.71-2.57-2.15c0-0.86,0.71-1.29,2.15-1.29c9.09-0.53,16.8-1.4,23.14-2.63c6.55-1.05,12.89-2.72,19.02-5
		c2.54-1.05,4.44-1.58,5.71-1.58C176.86,247.4,177.88,247.4,177.88,247.4z M171.43,275.99c0,0,1.65,0.8,4.96,2.39
		c2.59,1.74,3.88,3.19,3.88,4.35c0,0.89-0.62,1.33-1.86,1.33c-4.97,0-9.53,0.29-13.67,0.89l-19.26,2c-3.52,0.45-6.22,0.67-8.08,0.67
		c-3.05,0-5.14-0.56-6.24-1.67c-1.11-1.11-1.67-2.15-1.67-3.13c0-1.39,0.88-2.09,2.64-2.09c9.79-0.63,18.92-1.81,27.37-3.55
		c4.67-0.79,7.79-1.18,9.35-1.18C170.57,275.99,171.43,275.99,171.43,275.99z M155.02,235.57c2.57,1.31,3.86,2.75,3.86,4.32
		c0,1.05-0.19,2.16-0.58,3.34c-0.51,2.36-0.77,4.32-0.77,5.89l-0.18,61.63h-9.27l-2.77-65.66c-0.13-1.82-0.76-3.76-1.9-5.84
		c-0.89-1.04-1.33-1.82-1.33-2.34c0-2.33,1.22-3.5,3.67-3.5C148.2,233.41,151.29,234.13,155.02,235.57z M172.96,293.51
		c3.45,1.45,6.82,3.15,10.1,5.08c4.32,2.91,7.17,5.57,8.55,7.99c1.03,2.1,1.55,4.44,1.55,7.02c0,1.7-0.42,3.62-1.27,5.75
		c-0.99,1.56-2.26,2.34-3.81,2.34c-0.55,0-1.37-0.55-2.46-1.64c-1.82-1.56-4.11-4.84-6.84-9.84c-3.65-6.24-6.38-10.46-8.21-12.65
		c-1.46-1.56-2.19-2.73-2.19-3.51c0-0.84,0.32-1.27,0.95-1.27C170.02,292.78,171.23,293.03,172.96,293.51z"/>
	<path class="st6" d="M357.71,216.08c4.1,2.36,6.16,4.54,6.16,6.56c-0.42,1.33-0.95,2.55-1.58,3.66c-1.48,2.66-3.06,6.98-4.75,12.97
		c-6.55,17.07-13.09,31.14-19.64,42.22c-5.91,10.2-12.77,18.62-20.59,25.27c-8.24,7.31-16.37,12.74-24.39,16.29
		c-5.28,2.21-8.98,3.32-11.09,3.32c-1.27,0-1.9-0.37-1.9-1.11c12.66-9.18,21.59-16.68,26.79-22.5c6.78-6.04,13.57-14.77,20.35-26.19
		c5.2-9.18,9.49-19.36,12.88-30.56c2.94-8.95,4.41-16,4.41-21.15c0-2.18-0.08-3.94-0.25-5.28c-0.68-2.35-1.02-3.94-1.02-4.78
		c0.68-2.18,1.88-3.27,3.59-3.27C348.9,211.53,352.58,213.05,357.71,216.08z M419.79,199.39c5.79,3.45,8.69,6.5,8.69,9.14
		c0,1.42-0.98,3.54-2.93,6.37c-2.44,4.25-4.52,12.26-6.23,24.05c-3.42,27.36-6.47,45.98-9.16,55.89
		c-4.15,14.62-9.52,24.52-16.11,29.71c-4.15,3.3-7.45,4.95-9.89,4.95l-1.2-23.07c2.47,0,4.62-1.98,6.47-5.94
		c4.62-7.91,8.79-22.56,12.49-43.93c2.77-16.62,4.16-30.87,4.16-42.74c0-3.99-2.68-5.98-8.03-5.98c-5.78,0-14.72,0.87-26.82,2.62
		c-13.76,2.09-27.51,4.89-41.27,8.37c-3.58,0.7-6.19,1.05-7.84,1.05c-2.83,0-5.95-1.14-9.38-3.41c-3.43-2.06-5.15-3.72-5.15-4.96
		c0.61-1.03,2.03-1.55,4.27-1.55c10.2-0.29,24.85-2.06,43.97-5.3c20.9-2.94,36.96-6.03,48.17-9.27c2.55-0.59,4.21-0.88,4.97-0.88
		C410.2,194.52,413.8,196.14,419.79,199.39z M382.98,306.43l1.2,23.07c-2.41,0-4.71-2.07-6.89-6.2c-4.16-6.56-9.96-13.73-17.4-21.51
		c0-0.8,0.28-1.2,0.85-1.2C372.13,304.49,379.54,306.43,382.98,306.43z"/>
</g>
<g>
</g>
<g>
</g>
<g>
</g>
<g>
</g>
<g>
</g>
<g>
</g>
<g>
</g>
<g>
</g>
<g>
</g>
<g>
</g>
<g>
</g>
<g>
</g>
<g>
</g>
<g>
</g>
<g>
</g>
</svg>
