<svg id="eOrwMoYVpzx1" xmlns="http://www.w3.org/2000/svg" xmlns:xlink="http://www.w3.org/1999/xlink" viewBox="0 0 500 500" shape-rendering="geometricPrecision" text-rendering="geometricPrecision"><rect id="eOrwMoYVpzx2" display="none" width="500" height="500" rx="0" ry="0" fill="rgb(10,25,47)" stroke="none" stroke-width="1"/><path id="eOrwMoYVpzx3" d="M477,58.67C477,58.67,477.45,52.26,452.86,58.59C430.43,64.36,253.93,210.46,219.43,243.46C184.93,276.46,143.58,315.41,143.58,315.41L155.5,329.12C155.5,329.12,208.03,268.41,291.77,198.62C375.51,128.83,390.94,115.42,424.76,92.03C458.58,68.64,451.74,74.61,477,58.67Z" fill="rgb(78,110,147)" stroke="none" stroke-width="1"/><path id="eOrwMoYVpzx4" d="" fill="rgb(0,0,0)" stroke="rgb(0,0,0)" stroke-width="1" stroke-miterlimit="10"/><polygon id="eOrwMoYVpzx5" points="164.67,336.2 159.53,340.67 139.07,319.62 131,311.32 136.14,306.85" fill="rgb(48,82,122)" stroke="none" stroke-width="1"/><path id="eOrwMoYVpzx6" d="M22.29,438.92L34.43,449.43L152.36,333.3L138.45,319.89C138.45,319.89,22.74,432.51,22.29,438.92Z" fill="rgb(48,82,122)" stroke="none" stroke-width="1"/><path id="eOrwMoYVpzx7" d="M199.98,340.47C257.07,365.96,301.64,337.43,301.64,337.43C301.64,337.43,175.31,351.16,164.03,305.81C152.75,260.46,199.98,340.47,199.98,340.47Z" fill="rgb(49,180,211)" stroke="none" stroke-width="1"/><path id="eOrwMoYVpzx8" d="M254.18,268.06C254.27,266.34,385.32,197.83,363.5,188.03C341.67,178.23,343.63,236.83,308.67,246.96C273.71,257.09,254.18,268.06,254.18,268.06Z" fill="rgb(49,180,211)" stroke="none" stroke-width="1"/><path id="eOrwMoYVpzx9" d="M165.74,92.22C137.88,166.76,167.41,196.98,191.09,202.33C214.77,207.68,118.53,147.21,135.63,104.62C152.73,62.03,165.74,92.22,165.74,92.22Z" fill="rgb(49,180,211)" stroke="none" stroke-width="1"/><path id="eOrwMoYVpzx10" d="M77.63,196.57C84.59,229.63,67.18,250.94,90.33,264.96C90.33,264.96,0.56,141.6,57.28,150.4C114.01,159.2,5.73,159.05,56.55,189.54" fill="rgb(49,180,211)" stroke="none" stroke-width="1"/><path id="eOrwMoYVpzx11" d="M384.71,304.38C416.15,414.67,398.01,380.9,321.15,415.61C244.29,450.32,382.99,427.19,426.06,325.08C469.13,222.97,438.85,319.63,383.34,283.82C327.83,248.01,384.71,304.38,384.71,304.38Z" transform="matrix(1 0 0 1 0 -0.709656)" fill="rgb(49,180,211)" stroke="none" stroke-width="1"/><path id="eOrwMoYVpzx12" d="M134.58,377.98C6.56186,322.723043,2.927215,229.036461,67.08,303.14C131.232785,377.243539,65.232068,370.583291,124.98,415.62C184.727932,460.656709,158.49701,406.61196,185.09,418.91C211.68299,431.20804,117.662074,415.291706,58.68,387.7" transform="matrix(1 0 0 1 0 -0.823444)" fill="rgb(49,180,211)" stroke="none" stroke-width="1"/><g id="eOrwMoYVpzx13"><rect id="eOrwMoYVpzx14" width="450.78" height="350.61" rx="0" ry="0" transform="matrix(1 0 0 1 59.17 176.35)" fill="none" stroke="none" stroke-width="1"/><path id="eOrwMoYVpzx15" d="M108.42,198.88C112.79,200.67,114.97,202.61,114.97,204.72C114.97,205.37,114.75,206.59,114.31,208.37C114.02,210.8,113.87,212.34,113.87,212.99L113.1,234.97C113.1,252.94,112.31,266.57,110.73,275.86C109.6,287.11,105.54,297.87,98.54,308.14C94.7,314.38,88.72,320.24,80.6,325.74C75.18,329.29,71.69,331.06,70.1,331.06C69.25,331.06,68.82,330.69,68.82,329.96C81.88,317.39,90.64,304.27,95.08,290.61C99.52,279.75,101.74,261.2,101.74,234.97C100.97,217.34,99.51,206.86,97.36,203.52C95.67,201.29,94.82,200,94.82,199.62C94.82,197.67,96.36,196.69,99.43,196.69C101.38,196.69,104.37,197.42,108.42,198.88ZM203.02,185.09C203.02,185.09,206.04,186.6,212.07,189.61C215.65,191.69,217.45,194.04,217.45,196.67C217.45,197.52,216.93,199.1,215.88,201.42C213.57,206.91,211.37,214.19,209.28,223.26C206.76,236.13,205.51,247.84,205.51,258.4C205.51,276.98,209.48,292.74,217.41,305.7C223.69,315.64,228.98,320.61,233.28,320.61C235.31,320.61,237.09,317.06,238.61,309.95L242.04,294.52C242.29,292.32,242.8,291.21,243.56,291.21C243.99,291.21,244.28,292.43,244.43,294.86C245.73,313.01,247.54,324.86,249.86,330.39C250.87,332.6,251.38,334.15,251.38,335.04C251.38,338.11,248.68,339.64,243.29,339.64C237.49,339.64,231.3,337.33,224.74,332.7C216.16,326.75,208.96,317.67,203.16,305.45C197.86,293.23,195.21,277.54,195.21,258.39C195.21,244.39,195.85,228.69,197.15,211.29C197.79,205.99,198.12,202.17,198.12,199.83C198.12,197.82,196.95,196.81,194.63,196.81C192.44,196.81,188.33,197.18,182.3,197.93C158.72,200.54,139.26,203.14,123.91,205.74C120.07,206.48,117.06,206.86,114.86,206.86C112.97,206.86,110.61,205.9,107.78,203.98C104.57,201.87,102.96,200.24,102.96,199.08C102.96,198.23,104.39,197.81,107.25,197.81C125.25,197.24,142.63,195.55,159.4,192.71C174.94,190.45,186.8,188.18,194.98,185.91C197.84,185.35,199.68,185.06,200.5,185.06C202.17,185.09,203.02,185.09,203.02,185.09ZM113.65,309.06C114.48,309.06,115.87,309.22,117.81,309.54C120.44,309.86,122.1,310.02,122.8,310.02C124.55,310.02,127.75,309.8,132.38,309.35C153.04,306.26,167.5,303.82,175.76,302.05C177.89,301.61,179.39,301.38,180.27,301.38C183.4,301.38,184.96,302.16,184.96,303.72C184.96,305.03,183.28,306.11,179.91,306.98C156.22,313.5,144.38,316.83,144.38,316.98C139.39,318.43,134.9,319.95,130.92,321.54C128.55,322.84,126.74,323.5,125.5,323.5C123.39,323.5,120.51,321.94,116.85,318.83C112.77,315.01,110.74,312.46,110.74,311.19C110.74,309.76,111.71,309.06,113.65,309.06ZM125.75,256.07C125.75,256.07,126.59,256.39,128.27,257.03C131.95,258.31,133.79,259.86,133.79,261.67C133.79,263.12,133.89,264.63,134.1,266.19C135.38,275.8,136.03,282.43,136.03,286.07C136.03,287.84,135.76,289.25,135.23,290.28C134.7,291.43,134.06,292,133.31,292C132.46,292,131.6,291.31,130.75,289.93C129.47,288.13,128.77,286.22,128.67,284.2L127.04,274.99C126.41,270.19,125.73,266.83,125.01,264.91C124.56,262.93,123.38,261.11,121.48,259.44C120.75,258.99,120.39,258.67,120.39,258.48C120.39,256.87,121.07,256.06,122.44,256.06C124.65,256.07,125.75,256.07,125.75,256.07ZM174.89,223.98C178.99,225.44,181.05,226.69,181.05,227.73C181.05,229.4,178.56,230.75,173.59,231.79C169.85,232.23,166.68,232.66,164.09,233.1C161.79,233.54,155.88,234.63,146.38,236.37C141.19,237.24,137.45,237.68,135.15,237.68C131.98,237.68,129.33,237.36,127.22,236.73C124.05,235.67,122.46,234.51,122.46,233.24C122.46,231.34,124.94,230.28,129.92,230.07C140.56,228.38,150.9,226.17,160.94,223.46C163.89,222.78,165.52,222.44,165.82,222.44C167.33,222.42,170.35,222.94,174.89,223.98ZM177.88,247.4C177.88,247.4,180.28,248.55,185.1,250.86C187.29,252.16,188.38,253.6,188.38,255.19C188.38,256.5,187.67,257.81,186.27,259.11C184.71,261.07,183.3,263.79,182.06,267.28L178.31,278.39C177.44,280.18,175.98,281.08,173.95,281.08C171.04,281.08,169.59,280.45,169.59,279.2C169.59,278.72,169.69,277.77,169.9,276.34C170.73,272.53,171.36,269.19,171.78,266.33C172.2,263.23,172.41,260.73,172.41,258.82C172.41,257.75,171.74,257.21,170.4,257.21C166.57,257.21,161.67,257.78,155.69,258.92C143.49,260.97,135.48,262,131.65,262C130.22,262,128.8,261.36,127.37,260.06C125.66,259.06,124.8,258.35,124.8,257.91C124.8,257.05,125.51,256.62,126.95,256.62C136.04,256.09,143.75,255.22,150.09,253.99C156.64,252.94,162.98,251.27,169.11,248.99C171.65,247.94,173.55,247.41,174.82,247.41C176.86,247.4,177.88,247.4,177.88,247.4ZM171.43,275.99C171.43,275.99,173.08,276.79,176.39,278.38C178.98,280.12,180.27,281.57,180.27,282.73C180.27,283.62,179.65,284.06,178.41,284.06C173.44,284.06,168.88,284.35,164.74,284.95L145.48,286.95C141.96,287.4,139.26,287.62,137.4,287.62C134.35,287.62,132.26,287.06,131.16,285.95C130.05,284.84,129.49,283.8,129.49,282.82C129.49,281.43,130.37,280.73,132.13,280.73C141.92,280.1,151.05,278.92,159.5,277.18C164.17,276.39,167.29,276,168.85,276C170.57,275.99,171.43,275.99,171.43,275.99ZM155.02,235.57C157.59,236.88,158.88,238.32,158.88,239.89C158.88,240.94,158.69,242.05,158.3,243.23C157.79,245.59,157.53,247.55,157.53,249.12L157.35,310.75L148.08,310.75L145.31,245.09C145.18,243.27,144.55,241.33,143.41,239.25C142.52,238.21,142.08,237.43,142.08,236.91C142.08,234.58,143.3,233.41,145.75,233.41C148.2,233.41,151.29,234.13,155.02,235.57ZM172.96,293.51C176.41,294.96,179.78,296.66,183.06,298.59C187.38,301.5,190.23,304.16,191.61,306.58C192.64,308.68,193.16,311.02,193.16,313.6C193.16,315.3,192.74,317.22,191.89,319.35C190.9,320.91,189.63,321.69,188.08,321.69C187.53,321.69,186.71,321.14,185.62,320.05C183.8,318.49,181.51,315.21,178.78,310.21C175.13,303.97,172.4,299.75,170.57,297.56C169.11,296,168.38,294.83,168.38,294.05C168.38,293.21,168.7,292.78,169.33,292.78C170.02,292.78,171.23,293.03,172.96,293.51Z" fill="rgb(255,255,255)" stroke="none" stroke-width="1"/><path id="eOrwMoYVpzx16" d="M357.71,216.08C361.81,218.44,363.87,220.62,363.87,222.64C363.45,223.97,362.92,225.19,362.29,226.3C360.81,228.96,359.23,233.28,357.54,239.27C350.99,256.34,344.45,270.41,337.9,281.49C331.99,291.69,325.13,300.11,317.31,306.76C309.07,314.07,300.94,319.5,292.92,323.05C287.64,325.26,283.94,326.37,281.83,326.37C280.56,326.37,279.93,326,279.93,325.26C292.59,316.08,301.52,308.58,306.72,302.76C313.5,296.72,320.29,287.99,327.07,276.57C332.27,267.39,336.56,257.21,339.95,246.01C342.89,237.06,344.36,230.01,344.36,224.86C344.36,222.68,344.28,220.92,344.11,219.58C343.43,217.23,343.09,215.64,343.09,214.8C343.77,212.62,344.97,211.53,346.68,211.53C348.9,211.53,352.58,213.05,357.71,216.08ZM419.79,199.39C425.58,202.84,428.48,205.89,428.48,208.53C428.48,209.95,427.5,212.07,425.55,214.9C423.11,219.15,421.03,227.16,419.32,238.95C415.9,266.31,412.85,284.93,410.16,294.84C406.01,309.46,400.64,319.36,394.05,324.55C389.9,327.85,386.6,329.5,384.16,329.5L382.96,306.43C385.43,306.43,387.58,304.45,389.43,300.49C394.05,292.58,398.22,277.93,401.92,256.56C404.69,239.94,406.08,225.69,406.08,213.82C406.08,209.83,403.4,207.84,398.05,207.84C392.27,207.84,383.33,208.71,371.23,210.46C357.47,212.55,343.72,215.35,329.96,218.83C326.38,219.53,323.77,219.88,322.12,219.88C319.29,219.88,316.17,218.74,312.74,216.47C309.31,214.41,307.59,212.75,307.59,211.51C308.2,210.48,309.62,209.96,311.86,209.96C322.06,209.67,336.71,207.9,355.83,204.66C376.73,201.72,392.79,198.63,404,195.39C406.55,194.8,408.21,194.51,408.97,194.51C410.2,194.52,413.8,196.14,419.79,199.39ZM382.98,306.43L384.18,329.5C381.77,329.5,379.47,327.43,377.29,323.3C373.13,316.74,367.33,309.57,359.89,301.79C359.89,300.99,360.17,300.59,360.74,300.59C372.13,304.49,379.54,306.43,382.98,306.43Z" fill="rgb(255,255,255)" stroke="none" stroke-width="1"/></g><script><![CDATA[!function(t,n){"object"==typeof exports&&"undefined"!=typeof module?module.exports=n(require("vue")):"function"==typeof define&&define.amd?define(["vue"],n):((t="undefined"!=typeof globalThis?globalThis:t||self).__SVGATOR_PLAYER__=t.__SVGATOR_PLAYER__||{},t.__SVGATOR_PLAYER__["5c7f360c"]=n())}(this,(function(){"use strict";function t(t,n){var r=Object.keys(t);if(Object.getOwnPropertySymbols){var e=Object.getOwnPropertySymbols(t);n&&(e=e.filter((function(n){return Object.getOwnPropertyDescriptor(t,n).enumerable}))),r.push.apply(r,e)}return r}function n(n){for(var r=1;r<arguments.length;r++){var e=null!=arguments[r]?arguments[r]:{};r%2?t(Object(e),!0).forEach((function(t){u(n,t,e[t])})):Object.getOwnPropertyDescriptors?Object.defineProperties(n,Object.getOwnPropertyDescriptors(e)):t(Object(e)).forEach((function(t){Object.defineProperty(n,t,Object.getOwnPropertyDescriptor(e,t))}))}return n}function r(t){return(r="function"==typeof Symbol&&"symbol"==typeof Symbol.iterator?function(t){return typeof t}:function(t){return t&&"function"==typeof Symbol&&t.constructor===Symbol&&t!==Symbol.prototype?"symbol":typeof t})(t)}function e(t,n){if(!(t instanceof n))throw new TypeError("Cannot call a class as a function")}function i(t,n){for(var r=0;r<n.length;r++){var e=n[r];e.enumerable=e.enumerable||!1,e.configurable=!0,"value"in e&&(e.writable=!0),Object.defineProperty(t,e.key,e)}}function o(t,n,r){return n&&i(t.prototype,n),r&&i(t,r),t}function u(t,n,r){return n in t?Object.defineProperty(t,n,{value:r,enumerable:!0,configurable:!0,writable:!0}):t[n]=r,t}function a(t){return(a=Object.setPrototypeOf?Object.getPrototypeOf:function(t){return t.__proto__||Object.getPrototypeOf(t)})(t)}function l(t,n){return(l=Object.setPrototypeOf||function(t,n){return t.__proto__=n,t})(t,n)}function f(t,n){if(n&&("object"==typeof n||"function"==typeof n))return n;if(void 0!==n)throw new TypeError("Derived constructors may only return object or undefined");return function(t){if(void 0===t)throw new ReferenceError("this hasn't been initialised - super() hasn't been called");return t}(t)}function s(t){var n=function(){if("undefined"==typeof Reflect||!Reflect.construct)return!1;if(Reflect.construct.sham)return!1;if("function"==typeof Proxy)return!0;try{return Boolean.prototype.valueOf.call(Reflect.construct(Boolean,[],(function(){}))),!0}catch(t){return!1}}();return function(){var r,e=a(t);if(n){var i=a(this).constructor;r=Reflect.construct(e,arguments,i)}else r=e.apply(this,arguments);return f(this,r)}}function c(t,n,r){return(c="undefined"!=typeof Reflect&&Reflect.get?Reflect.get:function(t,n,r){var e=function(t,n){for(;!Object.prototype.hasOwnProperty.call(t,n)&&null!==(t=a(t)););return t}(t,n);if(e){var i=Object.getOwnPropertyDescriptor(e,n);return i.get?i.get.call(r):i.value}})(t,n,r||t)}var h=v(Math.pow(10,-6));function v(t){var n=arguments.length>1&&void 0!==arguments[1]?arguments[1]:6;if(Number.isInteger(t))return t;var r=Math.pow(10,n);return Math.round((+t+Number.EPSILON)*r)/r}function y(t,n){var r=arguments.length>2&&void 0!==arguments[2]?arguments[2]:h;return Math.abs(t-n)<r}var g=Math.PI/180;function d(t){return t}function p(t,n,r){var e=1-r;return 3*r*e*(t*e+n*r)+r*r*r}function m(){var t=arguments.length>0&&void 0!==arguments[0]?arguments[0]:0,n=arguments.length>1&&void 0!==arguments[1]?arguments[1]:0,r=arguments.length>2&&void 0!==arguments[2]?arguments[2]:1,e=arguments.length>3&&void 0!==arguments[3]?arguments[3]:1;return t<0||t>1||r<0||r>1?null:y(t,n)&&y(r,e)?d:function(i){if(i<=0)return t>0?i*n/t:0===n&&r>0?i*e/r:0;if(i>=1)return r<1?1+(i-1)*(e-1)/(r-1):1===r&&t<1?1+(i-1)*(n-1)/(t-1):1;for(var o,u=0,a=1;u<a;){var l=p(t,r,o=(u+a)/2);if(y(i,l))break;l<i?u=o:a=o}return p(n,e,o)}}function b(){return 1}function w(t){return 1===t?1:0}function x(){var t=arguments.length>0&&void 0!==arguments[0]?arguments[0]:1,n=arguments.length>1&&void 0!==arguments[1]?arguments[1]:0;if(1===t){if(0===n)return w;if(1===n)return b}var r=1/t;return function(t){return t>=1?1:(t+=n*r)-t%r}}var A="undefined"!=typeof window&&/(Mac|iPhone|iPod|iPad)/i.test(window.navigator.platform);Object.freeze({Meta:A?"Control":"Meta",Ctrl:"Control",Down:"ArrowDown",Up:"ArrowUp",Left:"ArrowLeft",Right:"ArrowRight",Esc:"Escape",Delete:"Backspace",Space:"Space"});var k=Math.sin,_=Math.cos,S=Math.acos,O=Math.asin,j=Math.tan,P=Math.atan2,M=Math.PI/180,E=180/Math.PI,R=Math.sqrt,I=function(){function t(){var n=arguments.length>0&&void 0!==arguments[0]?arguments[0]:1,r=arguments.length>1&&void 0!==arguments[1]?arguments[1]:0,i=arguments.length>2&&void 0!==arguments[2]?arguments[2]:0,o=arguments.length>3&&void 0!==arguments[3]?arguments[3]:1,u=arguments.length>4&&void 0!==arguments[4]?arguments[4]:0,a=arguments.length>5&&void 0!==arguments[5]?arguments[5]:0;e(this,t),this.m=[n,r,i,o,u,a],this.i=null,this.w=null,this.s=null}return o(t,[{key:"determinant",get:function(){var t=this.m;return t[0]*t[3]-t[1]*t[2]}},{key:"isIdentity",get:function(){if(null===this.i){var t=this.m;this.i=1===t[0]&&0===t[1]&&0===t[2]&&1===t[3]&&0===t[4]&&0===t[5]}return this.i}},{key:"point",value:function(t,n){var r=this.m;return{x:r[0]*t+r[2]*n+r[4],y:r[1]*t+r[3]*n+r[5]}}},{key:"translateSelf",value:function(){var t=arguments.length>0&&void 0!==arguments[0]?arguments[0]:0,n=arguments.length>1&&void 0!==arguments[1]?arguments[1]:0;if(!t&&!n)return this;var r=this.m;return r[4]+=r[0]*t+r[2]*n,r[5]+=r[1]*t+r[3]*n,this.w=this.s=this.i=null,this}},{key:"rotateSelf",value:function(){var t=arguments.length>0&&void 0!==arguments[0]?arguments[0]:0;if(t%=360){var n=k(t*=M),r=_(t),e=this.m,i=e[0],o=e[1];e[0]=i*r+e[2]*n,e[1]=o*r+e[3]*n,e[2]=e[2]*r-i*n,e[3]=e[3]*r-o*n,this.w=this.s=this.i=null}return this}},{key:"scaleSelf",value:function(){var t=arguments.length>0&&void 0!==arguments[0]?arguments[0]:1,n=arguments.length>1&&void 0!==arguments[1]?arguments[1]:1;if(1!==t||1!==n){var r=this.m;r[0]*=t,r[1]*=t,r[2]*=n,r[3]*=n,this.w=this.s=this.i=null}return this}},{key:"skewSelf",value:function(t,n){if(n%=360,(t%=360)||n){var r=this.m,e=r[0],i=r[1],o=r[2],u=r[3];t&&(t=j(t*M),r[2]+=e*t,r[3]+=i*t),n&&(n=j(n*M),r[0]+=o*n,r[1]+=u*n),this.w=this.s=this.i=null}return this}},{key:"resetSelf",value:function(){var t=arguments.length>0&&void 0!==arguments[0]?arguments[0]:1,n=arguments.length>1&&void 0!==arguments[1]?arguments[1]:0,r=arguments.length>2&&void 0!==arguments[2]?arguments[2]:0,e=arguments.length>3&&void 0!==arguments[3]?arguments[3]:1,i=arguments.length>4&&void 0!==arguments[4]?arguments[4]:0,o=arguments.length>5&&void 0!==arguments[5]?arguments[5]:0,u=this.m;return u[0]=t,u[1]=n,u[2]=r,u[3]=e,u[4]=i,u[5]=o,this.w=this.s=this.i=null,this}},{key:"recomposeSelf",value:function(){var t=arguments.length>0&&void 0!==arguments[0]?arguments[0]:null,n=arguments.length>1&&void 0!==arguments[1]?arguments[1]:null,r=arguments.length>2&&void 0!==arguments[2]?arguments[2]:null,e=arguments.length>3&&void 0!==arguments[3]?arguments[3]:null,i=arguments.length>4&&void 0!==arguments[4]?arguments[4]:null;return this.isIdentity||this.resetSelf(),t&&(t.x||t.y)&&this.translateSelf(t.x,t.y),n&&this.rotateSelf(n),r&&(r.x&&this.skewSelf(r.x,0),r.y&&this.skewSelf(0,r.y)),!e||1===e.x&&1===e.y||this.scaleSelf(e.x,e.y),i&&(i.x||i.y)&&this.translateSelf(i.x,i.y),this}},{key:"decompose",value:function(){var t=arguments.length>0&&void 0!==arguments[0]?arguments[0]:0,n=arguments.length>1&&void 0!==arguments[1]?arguments[1]:0,r=this.m,e=r[0]*r[0]+r[1]*r[1],i=[[r[0],r[1]],[r[2],r[3]]],o=R(e);if(0===o)return{origin:{x:v(r[4]),y:v(r[5])},translate:{x:v(t),y:v(n)},scale:{x:0,y:0},skew:{x:0,y:0},rotate:0};i[0][0]/=o,i[0][1]/=o;var u=r[0]*r[3]-r[1]*r[2]<0;u&&(o=-o);var a=i[0][0]*i[1][0]+i[0][1]*i[1][1];i[1][0]-=i[0][0]*a,i[1][1]-=i[0][1]*a;var l=R(i[1][0]*i[1][0]+i[1][1]*i[1][1]);if(0===l)return{origin:{x:v(r[4]),y:v(r[5])},translate:{x:v(t),y:v(n)},scale:{x:v(o),y:0},skew:{x:0,y:0},rotate:0};i[1][0]/=l,i[1][1]/=l,a/=l;var f=0;return i[1][1]<0?(f=S(i[1][1])*E,i[0][1]<0&&(f=360-f)):f=O(i[0][1])*E,u&&(f=-f),a=P(a,R(i[0][0]*i[0][0]+i[0][1]*i[0][1]))*E,u&&(a=-a),{origin:{x:v(r[4]),y:v(r[5])},translate:{x:v(t),y:v(n)},scale:{x:v(o),y:v(l)},skew:{x:v(a),y:0},rotate:v(f)}}},{key:"toString",value:function(){var t=arguments.length>0&&void 0!==arguments[0]?arguments[0]:" ";return null===this.s&&(this.s="matrix("+this.m.map((function(t){return v(t)})).join(t)+")"),this.s}}]),t}();function N(t,n,r){return t>=.5?r:n}function B(t,n,r){return 0===t||n===r?n:t*(r-n)+n}function F(t,n,r){var e=B(t,n,r);return e<=0?0:e}function T(t,n,r){var e=B(t,n,r);return e<=0?0:e>=1?1:e}function q(t,n,r){return 0===t?n:1===t?r:{x:B(t,n.x,r.x),y:B(t,n.y,r.y)}}function L(t,n,r){var e=function(t,n,r){return Math.round(B(t,n,r))}(t,n,r);return e<=0?0:e>=255?255:e}function C(t,n,r){return 0===t?n:1===t?r:{r:L(t,n.r,r.r),g:L(t,n.g,r.g),b:L(t,n.b,r.b),a:B(t,null==n.a?1:n.a,null==r.a?1:r.a)}}function D(t,n){for(var r=[],e=0;e<t;e++)r.push(n);return r}function z(t,n){if(--n<=0)return t;var r=(t=Object.assign([],t)).length;do{for(var e=0;e<r;e++)t.push(t[e])}while(--n>0);return t}var V,G=function(){function t(n){e(this,t),this.list=n,this.length=n.length}return o(t,[{key:"setAttribute",value:function(t,n){for(var r=this.list,e=0;e<this.length;e++)r[e].setAttribute(t,n)}},{key:"removeAttribute",value:function(t){for(var n=this.list,r=0;r<this.length;r++)n[r].removeAttribute(t)}},{key:"style",value:function(t,n){for(var r=this.list,e=0;e<this.length;e++)r[e].style[t]=n}}]),t}(),Y=/-./g,U=function(t,n){return n.toUpperCase()};function $(t){return"function"==typeof t?t:N}function Q(t){return t?"function"==typeof t?t:Array.isArray(t)?function(t){var n=arguments.length>1&&void 0!==arguments[1]?arguments[1]:d;if(!Array.isArray(t))return n;switch(t.length){case 1:return x(t[0])||n;case 2:return x(t[0],t[1])||n;case 4:return m(t[0],t[1],t[2],t[3])||n}return n}(t,null):function(t,n){var r=arguments.length>2&&void 0!==arguments[2]?arguments[2]:d;switch(t){case"linear":return d;case"steps":return x(n.steps||1,n.jump||0)||r;case"bezier":case"cubic-bezier":return m(n.x1||0,n.y1||0,n.x2||0,n.y2||0)||r}return r}(t.type,t.value,null):null}function H(t,n,r){var e=arguments.length>3&&void 0!==arguments[3]&&arguments[3],i=n.length-1;if(t<=n[0].t)return e?[0,0,n[0].v]:n[0].v;if(t>=n[i].t)return e?[i,1,n[i].v]:n[i].v;var o,u=n[0],a=null;for(o=1;o<=i;o++){if(!(t>n[o].t)){a=n[o];break}u=n[o]}return null==a?e?[i,1,n[i].v]:n[i].v:u.t===a.t?e?[o,1,a.v]:a.v:(t=(t-u.t)/(a.t-u.t),u.e&&(t=u.e(t)),e?[o,t,r(t,u.v,a.v)]:r(t,u.v,a.v))}function J(t,n){var r=arguments.length>2&&void 0!==arguments[2]?arguments[2]:null;return t&&t.length?"function"!=typeof n?null:("function"!=typeof r&&(r=null),function(e){var i=H(e,t,n);return null!=i&&r&&(i=r(i)),i}):null}function Z(t,n){return t.t-n.t}function K(t,n,e,i,o){var u,a="@"===e[0],l="#"===e[0],f=V[e],s=N;switch(a?(u=e.substr(1),e=u.replace(Y,U)):l&&(e=e.substr(1)),r(f)){case"function":if(s=f(i,o,H,Q,e,a,n,t),l)return s;break;case"string":s=J(i,$(f));break;case"object":if((s=J(i,$(f.i),f.f))&&"function"==typeof f.u)return f.u(n,s,e,a,t)}return s?function(t,n,r){if(arguments.length>3&&void 0!==arguments[3]&&arguments[3])return t instanceof G?function(e){return t.style(n,r(e))}:function(e){return t.style[n]=r(e)};if(Array.isArray(n)){var e=n.length;return function(i){var o=r(i);if(null==o)for(var u=0;u<e;u++)t[u].removeAttribute(n);else for(var a=0;a<e;a++)t[a].setAttribute(n,o)}}return function(e){var i=r(e);null==i?t.removeAttribute(n):t.setAttribute(n,i)}}(n,e,s,a):null}function W(t,n,e,i){if(!i||"object"!==r(i))return null;var o=null,u=null;return Array.isArray(i)?u=function(t){if(!t||!t.length)return null;for(var n=0;n<t.length;n++)t[n].e&&(t[n].e=Q(t[n].e));return t.sort(Z)}(i):(u=i.keys,o=i.data||null),u?K(t,n,e,u,o):null}function X(t,n,r){if(!r)return null;var e=[];for(var i in r)if(r.hasOwnProperty(i)){var o=W(t,n,i,r[i]);o&&e.push(o)}return e.length?e:null}function tt(t,n){if(!n.duration||n.duration<0)return null;var r=function(t,n){if(!n)return null;var r=[];if(Array.isArray(n))for(var e=n.length,i=0;i<e;i++){var o=n[i];if(2===o.length){var u=null;if("string"==typeof o[0])u=t.getElementById(o[0]);else if(Array.isArray(o[0])){u=[];for(var a=0;a<o[0].length;a++)if("string"==typeof o[0][a]){var l=t.getElementById(o[0][a]);l&&u.push(l)}u=u.length?1===u.length?u[0]:new G(u):null}if(u){var f=X(t,u,o[1]);f&&(r=r.concat(f))}}}else for(var s in n)if(n.hasOwnProperty(s)){var c=t.getElementById(s);if(c){var h=X(t,c,n[s]);h&&(r=r.concat(h))}}return r.length?r:null}(t,n.elements);return r?function(t,n){var r=arguments.length>2&&void 0!==arguments[2]?arguments[2]:1/0,e=arguments.length>3&&void 0!==arguments[3]?arguments[3]:1,i=arguments.length>4&&void 0!==arguments[4]&&arguments[4],o=arguments.length>5&&void 0!==arguments[5]?arguments[5]:1,u=t.length,a=e>0?n:0;i&&r%2==0&&(a=n-a);var l=null;return function(f,s){var c=f%n,h=1+(f-c)/n;s*=e,i&&h%2==0&&(s=-s);var v=!1;if(h>r)c=a,v=!0,-1===o&&(c=e>0?0:n);else if(s<0&&(c=n-c),c===l)return!1;l=c;for(var y=0;y<u;y++)t[y](c);return v}}(r,n.duration,n.iterations||1/0,n.direction||1,!!n.alternate,n.fill||1):null}function nt(t){return+("0x"+(t.replace(/[^0-9a-fA-F]+/g,"")||27))}function rt(t,n,r){return!t||!r||n>t.length?t:t.substring(0,n)+rt(t.substring(n+1),r,r)}function et(t){var n=arguments.length>1&&void 0!==arguments[1]?arguments[1]:27;return!t||t%n?t%n:et(t/n,n)}function it(t,n,r){if(t&&t.length){var e=nt(r),i=nt(n),o=et(e)+5,u=rt(t,et(e,5),o);return u=u.replace(/\x7c$/g,"==").replace(/\x2f$/g,"="),u=function(t,n,r){var e=+("0x"+t.substring(0,4));t=t.substring(4);for(var i=n%e+r%27,o=[],u=0;u<t.length;u+=2)if("|"!==t[u]){var a=+("0x"+t[u]+t[u+1])-i;o.push(a)}else{var l=+("0x"+t.substring(u+1,u+1+4))-i;u+=3,o.push(l)}return String.fromCharCode.apply(String,o)}(u=(u=atob(u)).replace(/[\x41-\x5A]/g,""),i,e),u=JSON.parse(u)}}Number.isInteger||(Number.isInteger=function(t){return"number"==typeof t&&isFinite(t)&&Math.floor(t)===t}),Number.EPSILON||(Number.EPSILON=2220446049250313e-31);var ot=function(){function t(n,r){var i=arguments.length>2&&void 0!==arguments[2]?arguments[2]:{};e(this,t),this._id=0,this._running=!1,this._rollingBack=!1,this._animations=n,this.duration=r.duration,this.alternate=r.alternate,this.fill=r.fill,this.iterations=r.iterations,this.direction=i.direction||1,this.speed=i.speed||1,this.fps=i.fps||100,this.offset=i.offset||0,this.rollbackStartOffset=0}return o(t,[{key:"_rollback",value:function(){var t=this,n=1/0,r=null;this.rollbackStartOffset=this.offset,this._rollingBack||(this._rollingBack=!0,this._running=!0);this._id=window.requestAnimationFrame((function e(i){if(t._rollingBack){null==r&&(r=i);var o=i-r,u=t.rollbackStartOffset-o,a=Math.round(u*t.speed);if(a>t.duration&&n!=1/0){var l=!!t.alternate&&a/t.duration%2>1,f=a%t.duration;a=(f+=l?t.duration:0)||t.duration}var s=t.fps?1e3/t.fps:0,c=Math.max(0,a);if(c<n-s){t.offset=c,n=c;for(var h=t._animations,v=h.length,y=0;y<v;y++)h[y](c,t.direction)}var g=!1;if(t.iterations>0&&-1===t.fill){var d=t.iterations*t.duration,p=d==a;a=p?0:a,t.offset=p?0:t.offset,g=a>d}a>0&&t.offset>=a&&!g?t._id=window.requestAnimationFrame(e):t.stop()}}))}},{key:"_start",value:function(){var t=this,n=arguments.length>0&&void 0!==arguments[0]?arguments[0]:0,r=-1/0,e=null,i={},o=function o(u){t._running=!0,null==e&&(e=u);var a=Math.round((u-e+n)*t.speed),l=t.fps?1e3/t.fps:0;if(a>r+l&&!t._rollingBack){t.offset=a,r=a;for(var f=t._animations,s=f.length,c=0,h=0;h<s;h++)i[h]?c++:(i[h]=f[h](a,t.direction),i[h]&&c++);if(c===s)return void t._stop()}t._id=window.requestAnimationFrame(o)};this._id=window.requestAnimationFrame(o)}},{key:"_stop",value:function(){this._id&&window.cancelAnimationFrame(this._id),this._running=!1,this._rollingBack=!1}},{key:"play",value:function(){!this._rollingBack&&this._running||(this._rollingBack=!1,this.rollbackStartOffset>this.duration&&(this.offset=this.rollbackStartOffset-(this.rollbackStartOffset-this.offset)%this.duration,this.rollbackStartOffset=0),this._start(this.offset))}},{key:"stop",value:function(){this._stop(),this.offset=0,this.rollbackStartOffset=0;var t=this.direction,n=this._animations;window.requestAnimationFrame((function(){for(var r=0;r<n.length;r++)n[r](0,t)}))}},{key:"reachedToEnd",value:function(){return this.iterations>0&&this.offset>=this.iterations*this.duration}},{key:"restart",value:function(){this._stop(),this.offset=0,this._start()}},{key:"pause",value:function(){this._stop()}},{key:"reverse",value:function(){this.direction=-this.direction}}],[{key:"build",value:function(r,e){return delete r.animationSettings,r.options=it(r.options,r.root,"5c7f360c"),r.animations.map((function(t){var e=it(t.s,r.root,"5c7f360c");for(var i in delete t.s,r.animationSettings||(r.animationSettings=n({},e)),e)e.hasOwnProperty(i)&&(t[i]=e[i])})),(r=function(t,n){if(V=n,!t||!t.root||!Array.isArray(t.animations))return null;for(var r=document.getElementsByTagName("svg"),e=!1,i=0;i<r.length;i++)if(r[i].id===t.root&&!r[i].svgatorAnimation){(e=r[i]).svgatorAnimation=!0;break}if(!e)return null;var o=t.animations.map((function(t){return tt(e,t)})).filter((function(t){return!!t}));return o.length?{element:e,animations:o,animationSettings:t.animationSettings,options:t.options||void 0}:null}(r,e))?{el:r.element,options:r.options||{},player:new t(r.animations,r.animationSettings,r.options)}:null}},{key:"push",value:function(t){return this.build(t)}},{key:"init",value:function(){var t=this,n=window.__SVGATOR_PLAYER__&&window.__SVGATOR_PLAYER__["5c7f360c"];Array.isArray(n)&&n.splice(0).forEach((function(n){return t.build(n)}))}}]),t}();function ut(t){return v(t)+""}function at(t){var n=arguments.length>1&&void 0!==arguments[1]?arguments[1]:" ";return t&&t.length?t.map(ut).join(n):""}function lt(t){return t?null==t.a||t.a>=1?"rgb("+t.r+","+t.g+","+t.b+")":"rgba("+t.r+","+t.g+","+t.b+","+t.a+")":"transparent"}function ft(t){return t?"url(#"+t+")":"none"}!function(){for(var t=0,n=["ms","moz","webkit","o"],r=0;r<n.length&&!window.requestAnimationFrame;++r)window.requestAnimationFrame=window[n[r]+"RequestAnimationFrame"],window.cancelAnimationFrame=window[n[r]+"CancelAnimationFrame"]||window[n[r]+"CancelRequestAnimationFrame"];window.requestAnimationFrame||(window.requestAnimationFrame=function(n){var r=Date.now(),e=Math.max(0,16-(r-t)),i=window.setTimeout((function(){n(r+e)}),e);return t=r+e,i},window.cancelAnimationFrame=window.clearTimeout)}();var st={f:null,i:function(t,n,r){return 0===t?n:1===t?r:{x:F(t,n.x,r.x),y:F(t,n.y,r.y)}},u:function(t,n){return function(r){var e=n(r);t.setAttribute("rx",ut(e.x)),t.setAttribute("ry",ut(e.y))}}},ct={f:null,i:function(t,n,r){return 0===t?n:1===t?r:{width:F(t,n.width,r.width),height:F(t,n.height,r.height)}},u:function(t,n){return function(r){var e=n(r);t.setAttribute("width",ut(e.width)),t.setAttribute("height",ut(e.height))}}};Object.freeze({M:2,L:2,Z:0,H:1,V:1,C:6,Q:4,T:2,S:4,A:7});var ht={},vt=null;function yt(t){var n=function(){if(vt)return vt;if("object"!==("undefined"==typeof document?"undefined":r(document))||!document.createElementNS)return{};var t=document.createElementNS("http://www.w3.org/2000/svg","svg");return t&&t.style?(t.style.position="absolute",t.style.opacity="0.01",t.style.zIndex="-9999",t.style.left="-9999px",t.style.width="1px",t.style.height="1px",vt={svg:t}):{}}().svg;if(!n)return function(t){return null};var e=document.createElementNS(n.namespaceURI,"path");e.setAttributeNS(null,"d",t),e.setAttributeNS(null,"fill","none"),e.setAttributeNS(null,"stroke","none"),n.appendChild(e);var i=e.getTotalLength();return function(t){var n=e.getPointAtLength(i*t);return{x:n.x,y:n.y}}}function gt(t){return ht[t]?ht[t]:ht[t]=yt(t)}function dt(t,n,r,e){if(!t||!e)return!1;var i=["M",t.x,t.y];if(n&&r&&(i.push("C"),i.push(n.x),i.push(n.y),i.push(r.x),i.push(r.y)),n?!r:r){var o=n||r;i.push("Q"),i.push(o.x),i.push(o.y)}return n||r||i.push("L"),i.push(e.x),i.push(e.y),i.join(" ")}function pt(t,n,r,e){var i=arguments.length>4&&void 0!==arguments[4]?arguments[4]:1,o=dt(t,n,r,e),u=gt(o);try{return u(i)}catch(t){return null}}function mt(t,n,r,e){var i=1-e;return i*i*t+2*i*e*n+e*e*r}function bt(t,n,r,e){return 2*(1-e)*(n-t)+2*e*(r-n)}function wt(t,n,r,e){var i=arguments.length>4&&void 0!==arguments[4]&&arguments[4],o=pt(t,n,null,r,e);return o||(o={x:mt(t.x,n.x,r.x,e),y:mt(t.y,n.y,r.y,e)}),i&&(o.a=xt(t,n,r,e)),o}function xt(t,n,r,e){return Math.atan2(bt(t.y,n.y,r.y,e),bt(t.x,n.x,r.x,e))}function At(t,n,r,e,i){var o=i*i;return i*o*(e-t+3*(n-r))+3*o*(t+r-2*n)+3*i*(n-t)+t}function kt(t,n,r,e,i){var o=1-i;return 3*(o*o*(n-t)+2*o*i*(r-n)+i*i*(e-r))}function _t(t,n,r,e,i){var o=arguments.length>5&&void 0!==arguments[5]&&arguments[5],u=pt(t,n,r,e,i);return u||(u={x:At(t.x,n.x,r.x,e.x,i),y:At(t.y,n.y,r.y,e.y,i)}),o&&(u.a=St(t,n,r,e,i)),u}function St(t,n,r,e,i){return Math.atan2(kt(t.y,n.y,r.y,e.y,i),kt(t.x,n.x,r.x,e.x,i))}function Ot(t,n,r){return t+(n-t)*r}function jt(t,n,r){var e=arguments.length>3&&void 0!==arguments[3]&&arguments[3],i={x:Ot(t.x,n.x,r),y:Ot(t.y,n.y,r)};return e&&(i.a=Pt(t,n)),i}function Pt(t,n){return Math.atan2(n.y-t.y,n.x-t.x)}function Mt(t,n,r){var e=arguments.length>3&&void 0!==arguments[3]&&arguments[3];if(Rt(n)){if(It(r))return wt(n,r.start,r,t,e)}else if(Rt(r)){if(n.end)return wt(n,n.end,r,t,e)}else{if(n.end)return r.start?_t(n,n.end,r.start,r,t,e):wt(n,n.end,r,t,e);if(r.start)return wt(n,r.start,r,t,e)}return jt(n,r,t,e)}function Et(t,n,r){var e=Mt(t,n,r,!0);return e.a=function(t){return arguments.length>1&&void 0!==arguments[1]&&arguments[1]?t+Math.PI:t}(e.a)/g,e}function Rt(t){return!t.type||"corner"===t.type}function It(t){return null!=t.start&&!Rt(t)}var Nt=new I;var Bt={f:ut,i:B},Ft={f:ut,i:T};function Tt(t,n,r){return t.map((function(t){return function(t,n,r){var e=t.v;if(!e||"g"!==e.t||e.s||!e.v||!e.r)return t;var i=r.getElementById(e.r),o=i&&i.querySelectorAll("stop")||[];return e.s=e.v.map((function(t,n){var r=o[n]&&o[n].getAttribute("offset");return{c:t,o:r=v(parseInt(r)/100)}})),delete e.v,t}(t,0,r)}))}var qt={gt:"gradientTransform",c:{x:"cx",y:"cy"},rd:"r",f:{x:"x1",y:"y1"},to:{x:"x2",y:"y2"}};function Lt(t,n,e,i,o,u,a,l){return Tt(t,0,l),n=function(t,n,r){for(var e,i,o,u=t.length-1,a={},l=0;l<=u;l++)(e=t[l]).e&&(e.e=n(e.e)),e.v&&"g"===(i=e.v).t&&i.r&&(o=r.getElementById(i.r))&&(a[i.r]={e:o,s:o.querySelectorAll("stop")});return a}(t,i,l),function(i){var o=e(i,t,Ct);if(!o)return"none";if("c"===o.t)return lt(o.v);if("g"===o.t){if(!n[o.r])return ft(o.r);var u=n[o.r];return function(t,n){for(var r=t.s,e=r.length;e<n.length;e++){var i=r[r.length-1].cloneNode();i.id=Vt(i.id),t.e.appendChild(i),r=t.s=t.e.querySelectorAll("stop")}for(var o=0,u=r.length,a=n.length-1;o<u;o++)r[o].setAttribute("stop-color",lt(n[Math.min(o,a)].c)),r[o].setAttribute("offset",n[Math.min(o,a)].o)}(u,o.s),Object.keys(qt).forEach((function(t){if(void 0!==o[t])if("object"!==r(qt[t])){var n,e="gt"===t?(n=o[t],Array.isArray(n)?"matrix("+n.join(" ")+")":""):o[t],i=qt[t];u.e.setAttribute(i,e)}else Object.keys(qt[t]).forEach((function(n){if(void 0!==o[t][n]){var r=o[t][n],e=qt[t][n];u.e.setAttribute(e,r)}}))})),ft(o.r)}return"none"}}function Ct(t,r,e){if(0===t)return r;if(1===t)return e;if(r&&e){var i=r.t;if(i===e.t)switch(r.t){case"c":return{t:i,v:C(t,r.v,e.v)};case"g":if(r.r===e.r){var o={t:i,s:Dt(t,r.s,e.s),r:r.r};return r.gt&&e.gt&&(o.gt=function(t,n,r){var e=n.length;if(e!==r.length)return N(t,n,r);for(var i=new Array(e),o=0;o<e;o++)i[o]=B(t,n[o],r[o]);return i}(t,r.gt,e.gt)),r.c?(o.c=q(t,r.c,e.c),o.rd=F(t,r.rd,e.rd)):r.f&&(o.f=q(t,r.f,e.f),o.to=q(t,r.to,e.to)),o}}if("c"===r.t&&"g"===e.t||"c"===e.t&&"g"===r.t){var u="c"===r.t?r:e,a="g"===r.t?n({},r):n({},e),l=a.s.map((function(t){return{c:u.v,o:t.o}}));return a.s="c"===r.t?Dt(t,l,a.s):Dt(t,a.s,l),a}}return N(t,r,e)}function Dt(t,n,r){if(n.length===r.length)return n.map((function(n,e){return zt(t,n,r[e])}));for(var e=Math.max(n.length,r.length),i=[],o=0;o<e;o++){var u=zt(t,n[Math.min(o,n.length-1)],r[Math.min(o,r.length-1)]);i.push(u)}return i}function zt(t,n,r){return{o:T(t,n.o,r.o||0),c:C(t,n.c,r.c||{})}}function Vt(t){return t.replace(/-fill-([0-9]+)$/,(function(t,n){return"-fill-"+(+n+1)}))}var Gt={fill:Lt,"fill-opacity":Ft,stroke:Lt,"stroke-opacity":Ft,"stroke-width":Bt,"stroke-dashoffset":{f:ut,i:B},"stroke-dasharray":{f:function(t){var n=arguments.length>1&&void 0!==arguments[1]?arguments[1]:" ";return t&&t.length>0&&(t=t.map((function(t){return v(t,4)}))),at(t,n)},i:function(t,n,r){var e,i,o,u=n.length,a=r.length;if(u!==a)if(0===u)n=D(u=a,0);else if(0===a)a=u,r=D(u,0);else{var l=(o=(e=u)*(i=a)/function(t,n){for(var r;n;)r=n,n=t%n,t=r;return t||1}(e,i))<0?-o:o;n=z(n,Math.floor(l/u)),r=z(r,Math.floor(l/a)),u=a=l}for(var f=[],s=0;s<u;s++)f.push(v(F(t,n[s],r[s])));return f}},opacity:Ft,transform:function(t,n,e,i){if(!(t=function(t,n){if(!t||"object"!==r(t))return null;var e=!1;for(var i in t)t.hasOwnProperty(i)&&(t[i]&&t[i].length?(t[i].forEach((function(t){t.e&&(t.e=n(t.e))})),e=!0):delete t[i]);return e?t:null}(t,i)))return null;var o=function(r,i,o){var u=arguments.length>3&&void 0!==arguments[3]?arguments[3]:null;return t[r]?e(i,t[r],o):n&&n[r]?n[r]:u};return n&&n.a&&t.o?function(n){var r=e(n,t.o,Et);return Nt.recomposeSelf(r,o("r",n,B,0)+r.a,o("k",n,q),o("s",n,q),o("t",n,q)).toString()}:function(t){return Nt.recomposeSelf(o("o",t,Mt,null),o("r",t,B,0),o("k",t,q),o("s",t,q),o("t",t,q)).toString()}},r:Bt,"#size":ct,"#radius":st,_:function(t,n){if(Array.isArray(t))for(var r=0;r<t.length;r++)this[t[r]]=n;else this[t]=n}},Yt=function(t){!function(t,n){if("function"!=typeof n&&null!==n)throw new TypeError("Super expression must either be null or a function");t.prototype=Object.create(n&&n.prototype,{constructor:{value:t,writable:!0,configurable:!0}}),n&&l(t,n)}(r,t);var n=s(r);function r(){return e(this,r),n.apply(this,arguments)}return o(r,null,[{key:"build",value:function(t){var n=c(a(r),"build",this).call(this,t,Gt);if(!n)return null;n.el,n.options,function(t,n,r){t.play()}(n.player)}}]),r}(ot);return Yt.init(),Yt}));
(function(s,i,o,w){w[o]=w[o]||{};w[o][s]=w[o][s]||[];w[o][s].push(i);})('5c7f360c',{"root":"eOrwMoYVpzx1","animations":[{"elements":{"eOrwMoYVpzx7":{"transform":{"data":{"t":{"x":-231.964622,"y":-321.477707}},"keys":{"o":[{"t":0,"v":{"x":231.964622,"y":321.477707,"type":"corner"}},{"t":1000,"v":{"x":255.660284,"y":317.122776,"type":"corner"}}],"r":[{"t":0,"v":0},{"t":1000,"v":-7.137302}]}}},"eOrwMoYVpzx8":{"transform":{"data":{"t":{"x":-310.06546,"y":-227.494728}},"keys":{"o":[{"t":0,"v":{"x":310.06546,"y":227.494728,"type":"corner"}},{"t":1000,"v":{"x":319.589995,"y":216.719255,"type":"corner"}}],"r":[{"t":0,"v":0},{"t":1000,"v":5.216919}]}}},"eOrwMoYVpzx9":{"transform":{"data":{"t":{"x":-164.221497,"y":-142.250637}},"keys":{"o":[{"t":0,"v":{"x":164.221497,"y":142.250637,"type":"corner"}},{"t":1000,"v":{"x":172.802228,"y":134.430637,"type":"corner"}}],"r":[{"t":0,"v":0},{"t":1000,"v":12.932667}]}}},"eOrwMoYVpzx10":{"transform":{"data":{"t":{"x":-64.409504,"y":-207.45536}},"keys":{"o":[{"t":0,"v":{"x":64.409504,"y":207.45536,"type":"corner"}},{"t":1000,"v":{"x":84.362387,"y":222.223361,"type":"corner"}}],"r":[{"t":0,"v":0},{"t":1000,"v":-11.075723}]}}},"eOrwMoYVpzx11":{"transform":{"data":{"t":{"x":-372.415054,"y":-351.307663}},"keys":{"o":[{"t":0,"v":{"x":372.415054,"y":350.598007,"type":"corner"}},{"t":1000,"v":{"x":376.972023,"y":329.832224,"type":"corner"}}],"r":[{"t":0,"v":0},{"t":1000,"v":5.145861}]}}},"eOrwMoYVpzx12":{"transform":{"data":{"t":{"x":-125.139847,"y":-368.071716}},"keys":{"o":[{"t":0,"v":{"x":125.139847,"y":367.248272,"type":"corner"}},{"t":1000,"v":{"x":134.134191,"y":371.781716,"type":"corner"}}],"r":[{"t":0,"v":0},{"t":1000,"v":-8.031863}]}}}},"s":"MRDA1M0ljMjY5YWJiY2LI5YThiYmIwYjZiNTYP5ODE3ODc3Nzc3NzczINjlhYmIwYjlhY2FhYTmJiMGI2YjU2OTgxNzOg3MzY5YjBiYmFjYjlNhOFZiYmIwSmI2SmI1PYmFINjk4MTc3NzM2OUUJhZGIwQmIzYjM2OTXgxRjc0Nzg3M1c2OWEW4YjNiYmFjYjliNWE4OYmJLYWM2OTgxYmJiOSWJjYWM3MzY5YmFiN2FFjYWNJYWI2OUo4MTcW4YzQ/"}],"options":"MNDAxMDg4MmZPRTgwODLE2ZTdmODEyZjQ3MmYE3OU43YzZlNzEyZjhhCRg|"},'__SVGATOR_PLAYER__',window)]]></script></svg>